<svg width="512" height="512" viewBox="0 0 512 512" style="color:#2787F5" xmlns="http://www.w3.org/2000/svg" class="h-full w-full"><rect width="512" height="512" x="0" y="0" rx="30" fill="transparent" stroke="transparent" stroke-width="0" stroke-opacity="100%" paint-order="stroke"></rect><svg width="512px" height="512px" viewBox="0 0 24 24" fill="#2787F5" x="0" y="0" role="img" style="display:inline-block;vertical-align:middle" xmlns="http://www.w3.org/2000/svg"><g fill="#2787F5"><path fill="currentColor" d="M4 21q-.825 0-1.413-.588T2 19V5q0-.825.588-1.413T4 3h16q.825 0 1.413.588T22 5v14q0 .825-.588 1.413T20 21H4Zm1-4h5v-2H5v2Zm9.55-2l4.95-4.95l-1.425-1.425l-3.525 3.55l-1.425-1.425l-1.4 1.425L14.55 15ZM5 13h5v-2H5v2Zm0-4h5V7H5v2Z"/></g></svg></svg>